<svg xmlns="http://www.w3.org/2000/svg" viewBox="-69.7 -1585.2 6051.9 1727.0" fill="#1E2A3A"><title>Somnila</title><g><path d="M357.906005859375 -806.697021484375Q288.40771484375 -806.697021484375 248.9591064453125 -770.2484130859375Q209.510498046875 -733.7998046875 209.510498046875 -676.502197265625Q209.510498046875 -639.703857421875 225.809814453125 -610.405029296875Q242.109130859375 -581.106201171875 283.4576416015625 -557.1571044921875Q324.80615234375 -533.2080078125 399.503662109375 -510.308837890625Q516.20654296875 -476.708251953125 582.9578857421875 -436.1578369140625Q649.709228515625 -395.607421875 677.609619140625 -343.2567138671875Q705.510009765625 -290.906005859375 705.510009765625 -222.20458984375Q705.510009765625 -118.60205078125 630.4586181640625 -48.40087890625Q555.4072265625 21.80029296875 404.904052734375 21.80029296875Q347.504150390625 21.80029296875 309.5540771484375 10.600341796875Q271.60400390625 -0.599609375 247.603759765625 -11.799560546875Q223.603515625 -22.99951171875 208.60302734375 -22.99951171875Q198.302490234375 -22.99951171875 193.8017578125 -11.799560546875Q189.301025390625 -0.599609375 182.400390625 10.600341796875Q175.499755859375 21.80029296875 157.3994140625 21.80029296875Q142.5986328125 21.80029296875 131.5479736328125 11.999755859375Q120.497314453125 2.19921875 110.9970703125 -26.102294921875L57.3994140625 -178.197265625Q47.698974609375 -211.699462890625 51.199462890625 -232.501220703125Q54.699951171875 -253.302978515625 71.6015625 -260.903564453125Q90.903076171875 -269.504150390625 111.1544189453125 -260.1536865234375Q131.40576171875 -250.80322265625 146.306884765625 -224.502197265625Q178.00732421875 -163.60302734375 216.0068359375 -126.3536376953125Q254.00634765625 -89.104248046875 299.605224609375 -72.0545654296875Q345.2041015625 -55.0048828125 397.902587890625 -55.0048828125Q488.3994140625 -55.0048828125 528.09814453125 -94.103515625Q567.796875 -133.2021484375 567.796875 -188.300048828125Q567.796875 -227.898681640625 548.7474365234375 -260.3974609375Q529.697998046875 -292.896240234375 483.9490966796875 -320.0452880859375Q438.2001953125 -347.1943359375 357.101806640625 -369.99365234375Q255.00146484375 -398.193359375 192.0504150390625 -435.7435302734375Q129.099365234375 -473.293701171875 100.598388671875 -524.3446044921875Q72.097412109375 -575.3955078125 72.097412109375 -642.097412109375Q72.097412109375 -711.499267578125 106.198486328125 -765.9503173828125Q140.299560546875 -820.4013671875 204.001220703125 -852.101806640625Q267.702880859375 -883.80224609375 354.8046875 -883.80224609375Q418.60498046875 -883.80224609375 456.5048828125 -869.6025390625Q494.40478515625 -855.40283203125 513.7547607421875 -840.703125Q533.104736328125 -826.00341796875 541.4052734375 -826.00341796875Q554.905517578125 -826.00341796875 558.206298828125 -840.703125Q561.507080078125 -855.40283203125 566.6578369140625 -869.6025390625Q571.80859375 -883.80224609375 590.0087890625 -883.80224609375Q603.709716796875 -883.80224609375 613.7601318359375 -874.70166015625Q623.810546875 -865.60107421875 628.0107421875 -843.99951171875L668.4091796875 -684.4033203125Q678.00927734375 -641.901611328125 676.308837890625 -622.0504150390625Q674.6083984375 -602.19921875 656.20703125 -595.9990234375Q639.60595703125 -591.098876953125 621.604736328125 -601.0494384765625Q603.603515625 -611.0 588.40234375 -639.0009765625Q548.901611328125 -725.99951171875 491.302978515625 -766.3482666015625Q433.704345703125 -806.697021484375 357.906005859375 -806.697021484375Z"/><path d="M1191.903564453125 -883.102294921875Q1317.505126953125 -883.102294921875 1413.5560302734375 -825.2021484375Q1509.60693359375 -767.302001953125 1564.00732421875 -665.8516845703125Q1618.40771484375 -564.4013671875 1618.40771484375 -431.700927734375Q1618.40771484375 -302.60107421875 1563.2572021484375 -200.40087890625Q1508.106689453125 -98.20068359375 1411.005615234375 -39.5504150390625Q1313.904541015625 19.099853515625 1187.0029296875 19.099853515625Q1061.701416015625 19.099853515625 965.50048828125 -38.80029296875Q869.299560546875 -96.700439453125 814.899169921875 -198.500732421875Q760.498779296875 -300.301025390625 760.498779296875 -432.301513671875Q760.498779296875 -562.4013671875 815.6492919921875 -664.1015625Q870.7998046875 -765.8017578125 967.90087890625 -824.4520263671875Q1065.001953125 -883.102294921875 1191.903564453125 -883.102294921875ZM1263.203125 -73.0068359375Q1338.19970703125 -87.706298828125 1387.2471923828125 -146.6044921875Q1436.294677734375 -205.502685546875 1454.3431396484375 -292.9510498046875Q1472.3916015625 -380.3994140625 1454.091064453125 -482.099365234375Q1433.99072265625 -595.298583984375 1384.792236328125 -669.3974609375Q1335.59375 -743.496337890625 1265.9466552734375 -774.9456787109375Q1196.299560546875 -806.39501953125 1115.703369140625 -790.99560546875Q1040.706787109375 -776.99609375 991.6593017578125 -718.097900390625Q942.61181640625 -659.19970703125 924.71337890625 -571.4013671875Q906.81494140625 -483.60302734375 924.8154296875 -381.903076171875Q945.2158203125 -269.00390625 994.6142578125 -194.7550048828125Q1044.0126953125 -120.506103515625 1113.6597900390625 -89.40673828125Q1183.306884765625 -58.307373046875 1263.203125 -73.0068359375Z"/><path d="M1955.112060546875 -824.6005859375V-152.60791015625Q1955.112060546875 -120.906494140625 1964.01171875 -105.80615234375Q1972.911376953125 -90.705810546875 1997.510498046875 -83.905517578125L2038.20849609375 -75.00537109375Q2067.40869140625 -63.504150390625 2067.40869140625 -36.903076171875Q2067.40869140625 0.0 2025.6064453125 0.0H1732.501708984375Q1710.6005859375 0.0 1699.2998046875 -9.600830078125Q1687.9990234375 -19.20166015625 1687.9990234375 -36.903076171875Q1687.9990234375 -51.904052734375 1696.19921875 -62.004638671875Q1704.3994140625 -72.105224609375 1720.499755859375 -78.60595703125L1760.59765625 -86.906005859375Q1784.896728515625 -93.106201171875 1794.2464599609375 -107.4564208984375Q1803.59619140625 -121.806640625 1803.59619140625 -152.60791015625V-680.19140625Q1803.59619140625 -707.9921875 1795.396240234375 -719.4425048828125Q1787.1962890625 -730.892822265625 1767.396484375 -734.193359375L1705.2001953125 -735.99365234375Q1686.7998046875 -740.79443359375 1679.2496337890625 -749.794921875Q1671.699462890625 -758.79541015625 1671.699462890625 -771.896240234375Q1671.699462890625 -786.197265625 1681.0 -796.697998046875Q1690.300537109375 -807.19873046875 1714.40185546875 -815.3994140625L1834.60595703125 -856.901611328125Q1864.607421875 -867.40234375 1880.6583251953125 -871.0526123046875Q1896.709228515625 -874.702880859375 1909.81005859375 -874.702880859375Q1931.4111328125 -874.702880859375 1943.2615966796875 -861.1522216796875Q1955.112060546875 -847.6015625 1955.112060546875 -824.6005859375ZM1933.21142578125 -620.096435546875 1892.8095703125 -665.698974609375 1933.609375 -705.9990234375Q2024.311279296875 -796.901611328125 2108.1617431640625 -840.3519287109375Q2192.01220703125 -883.80224609375 2272.712158203125 -883.80224609375Q2378.0126953125 -883.80224609375 2443.7625732421875 -814.901611328125Q2509.512451171875 -746.0009765625 2509.512451171875 -620.0V-152.60791015625Q2509.512451171875 -120.906494140625 2518.412109375 -105.80615234375Q2527.311767578125 -90.705810546875 2551.910888671875 -83.905517578125L2592.60888671875 -75.00537109375Q2621.80908203125 -63.504150390625 2621.80908203125 -36.903076171875Q2621.80908203125 0.0 2580.0068359375 0.0H2287.502197265625Q2245.699951171875 0.0 2245.699951171875 -36.903076171875Q2245.699951171875 -63.504150390625 2274.900146484375 -75.00537109375L2315.59814453125 -83.905517578125Q2340.197265625 -90.705810546875 2349.096923828125 -105.80615234375Q2357.99658203125 -120.906494140625 2357.99658203125 -152.60791015625V-580.696044921875Q2357.99658203125 -673.093505859375 2314.4481201171875 -721.1422119140625Q2270.899658203125 -769.19091796875 2200.501708984375 -769.19091796875Q2149.703369140625 -769.19091796875 2090.9556884765625 -741.7420654296875Q2032.2080078125 -714.293212890625 1967.510986328125 -652.696044921875ZM2487.61181640625 -620.096435546875 2447.2099609375 -665.698974609375 2488.009765625 -705.9990234375Q2578.711669921875 -796.901611328125 2662.5621337890625 -840.3519287109375Q2746.41259765625 -883.80224609375 2827.112548828125 -883.80224609375Q2932.4130859375 -883.80224609375 2998.1629638671875 -814.901611328125Q3063.912841796875 -746.0009765625 3063.912841796875 -620.0V-152.60791015625Q3063.912841796875 -121.806640625 3073.41259765625 -107.6064453125Q3082.912353515625 -93.40625 3106.911376953125 -86.906005859375L3147.00927734375 -78.60595703125Q3162.8095703125 -71.80517578125 3171.1597900390625 -61.8546142578125Q3179.510009765625 -51.904052734375 3179.510009765625 -36.903076171875Q3179.510009765625 -19.20166015625 3168.209228515625 -9.600830078125Q3156.908447265625 0.0 3135.00732421875 0.0H2841.902587890625Q2800.100341796875 0.0 2800.100341796875 -36.903076171875Q2800.100341796875 -63.504150390625 2829.300537109375 -75.00537109375L2869.99853515625 -83.905517578125Q2894.59765625 -90.705810546875 2903.497314453125 -105.80615234375Q2912.39697265625 -120.906494140625 2912.39697265625 -152.60791015625V-580.696044921875Q2912.39697265625 -673.093505859375 2868.8485107421875 -721.1422119140625Q2825.300048828125 -769.19091796875 2754.902099609375 -769.19091796875Q2704.103759765625 -769.19091796875 2645.3560791015625 -741.7420654296875Q2586.6083984375 -714.293212890625 2521.911376953125 -652.696044921875Z"/><path d="M3486.81201171875 -824.6005859375V-152.60791015625Q3486.81201171875 -120.906494140625 3495.711669921875 -105.80615234375Q3504.611328125 -90.705810546875 3529.21044921875 -83.905517578125L3569.908447265625 -75.00537109375Q3599.108642578125 -63.504150390625 3599.108642578125 -36.903076171875Q3599.108642578125 0.0 3557.306396484375 0.0H3264.20166015625Q3242.300537109375 0.0 3230.999755859375 -9.600830078125Q3219.698974609375 -19.20166015625 3219.698974609375 -36.903076171875Q3219.698974609375 -51.904052734375 3227.899169921875 -62.004638671875Q3236.099365234375 -72.105224609375 3252.19970703125 -78.60595703125L3292.297607421875 -86.906005859375Q3316.5966796875 -93.106201171875 3325.9464111328125 -107.4564208984375Q3335.296142578125 -121.806640625 3335.296142578125 -152.60791015625V-680.19140625Q3335.296142578125 -707.9921875 3327.09619140625 -719.4425048828125Q3318.896240234375 -730.892822265625 3299.096435546875 -734.193359375L3236.900146484375 -735.99365234375Q3218.499755859375 -740.79443359375 3210.9495849609375 -749.794921875Q3203.3994140625 -758.79541015625 3203.3994140625 -771.896240234375Q3203.3994140625 -786.197265625 3212.699951171875 -796.697998046875Q3222.00048828125 -807.19873046875 3246.101806640625 -815.3994140625L3366.305908203125 -856.901611328125Q3396.307373046875 -867.40234375 3412.3582763671875 -871.0526123046875Q3428.4091796875 -874.702880859375 3441.510009765625 -874.702880859375Q3463.111083984375 -874.702880859375 3474.9615478515625 -861.1522216796875Q3486.81201171875 -847.6015625 3486.81201171875 -824.6005859375ZM3464.911376953125 -622.896240234375 3424.509521484375 -668.498779296875 3464.609375 -708.798828125Q3550.01171875 -795.501708984375 3635.01220703125 -839.6519775390625Q3720.0126953125 -883.80224609375 3805.912353515625 -883.80224609375Q3917.712646484375 -883.80224609375 3980.9627685546875 -816.301513671875Q4044.212890625 -748.80078125 4044.212890625 -632.59912109375V-152.60791015625Q4044.212890625 -121.806640625 4053.5626220703125 -107.4564208984375Q4062.912353515625 -93.106201171875 4087.21142578125 -86.906005859375L4127.309326171875 -78.60595703125Q4143.40966796875 -72.105224609375 4151.60986328125 -62.004638671875Q4159.81005859375 -51.904052734375 4159.81005859375 -36.903076171875Q4159.81005859375 -19.20166015625 4148.50927734375 -9.600830078125Q4137.20849609375 0.0 4115.307373046875 0.0H3822.20263671875Q3780.400390625 0.0 3780.400390625 -36.903076171875Q3780.400390625 -63.504150390625 3809.6005859375 -75.00537109375L3850.298583984375 -83.905517578125Q3874.897705078125 -90.705810546875 3883.79736328125 -105.80615234375Q3892.697021484375 -120.906494140625 3892.697021484375 -152.60791015625V-593.295166015625Q3892.697021484375 -678.693115234375 3850.4483642578125 -723.9420166015625Q3808.19970703125 -769.19091796875 3733.701904296875 -769.19091796875Q3674.904052734375 -769.19091796875 3615.3563232421875 -742.2420654296875Q3555.80859375 -715.293212890625 3497.111083984375 -655.495849609375Z"/><path d="M4467.112060546875 -824.6005859375V-152.60791015625Q4467.112060546875 -122.106689453125 4476.4617919921875 -107.7564697265625Q4485.8115234375 -93.40625 4510.110595703125 -86.906005859375L4550.20849609375 -78.60595703125Q4566.0087890625 -72.4052734375 4574.3590087890625 -62.1546630859375Q4582.709228515625 -51.904052734375 4582.709228515625 -36.903076171875Q4582.709228515625 -19.20166015625 4571.408447265625 -9.600830078125Q4560.107666015625 0.0 4538.20654296875 0.0H4244.501708984375Q4222.300537109375 0.0 4211.1497802734375 -9.600830078125Q4199.9990234375 -19.20166015625 4199.9990234375 -36.903076171875Q4199.9990234375 -51.904052734375 4208.19921875 -62.1546630859375Q4216.3994140625 -72.4052734375 4232.499755859375 -78.60595703125L4272.59765625 -86.906005859375Q4296.896728515625 -93.40625 4306.2464599609375 -107.7564697265625Q4315.59619140625 -122.106689453125 4315.59619140625 -152.60791015625V-680.19140625Q4315.59619140625 -707.9921875 4307.396240234375 -719.4425048828125Q4299.1962890625 -730.892822265625 4279.396484375 -734.193359375L4217.2001953125 -735.99365234375Q4198.7998046875 -740.79443359375 4191.2496337890625 -749.794921875Q4183.699462890625 -758.79541015625 4183.699462890625 -771.896240234375Q4183.699462890625 -786.197265625 4193.0 -796.697998046875Q4202.300537109375 -807.19873046875 4226.40185546875 -815.3994140625L4346.60595703125 -856.901611328125Q4376.607421875 -867.40234375 4392.6583251953125 -871.0526123046875Q4408.709228515625 -874.702880859375 4421.81005859375 -874.702880859375Q4443.4111328125 -874.702880859375 4455.2615966796875 -861.1522216796875Q4467.112060546875 -847.6015625 4467.112060546875 -824.6005859375ZM4375.205078125 -1060.994140625Q4322.8017578125 -1060.994140625 4290.5 -1092.2457275390625Q4258.1982421875 -1123.497314453125 4258.1982421875 -1172.80029296875Q4258.1982421875 -1222.80322265625 4290.5 -1254.0548095703125Q4322.8017578125 -1285.306396484375 4375.205078125 -1285.306396484375Q4427.6083984375 -1285.306396484375 4459.91015625 -1254.40478515625Q4492.2119140625 -1223.503173828125 4492.2119140625 -1173.500244140625Q4492.2119140625 -1123.497314453125 4459.91015625 -1092.2457275390625Q4427.6083984375 -1060.994140625 4375.205078125 -1060.994140625Z"/><path d="M4889.21240234375 -1415.100830078125V-152.60791015625Q4889.21240234375 -121.806640625 4898.5621337890625 -107.4564208984375Q4907.911865234375 -93.106201171875 4932.2109375 -86.906005859375L4972.308837890625 -78.60595703125Q4988.4091796875 -72.105224609375 4996.609375 -62.004638671875Q5004.8095703125 -51.904052734375 5004.8095703125 -36.903076171875Q5004.8095703125 -19.20166015625 4993.5087890625 -9.600830078125Q4982.2080078125 0.0 4960.306884765625 0.0H4666.60205078125Q4644.700927734375 0.0 4633.400146484375 -9.600830078125Q4622.099365234375 -19.20166015625 4622.099365234375 -36.903076171875Q4622.099365234375 -51.904052734375 4630.299560546875 -62.004638671875Q4638.499755859375 -72.105224609375 4654.60009765625 -78.60595703125L4694.697998046875 -86.906005859375Q4718.9970703125 -93.106201171875 4728.3468017578125 -107.4564208984375Q4737.696533203125 -121.806640625 4737.696533203125 -152.60791015625V-1270.691650390625Q4737.696533203125 -1298.492431640625 4729.49658203125 -1309.9427490234375Q4721.296630859375 -1321.39306640625 4701.496826171875 -1324.693603515625L4639.300537109375 -1326.493896484375Q4620.900146484375 -1331.294677734375 4613.3499755859375 -1340.295166015625Q4605.7998046875 -1349.295654296875 4605.7998046875 -1362.396484375Q4605.7998046875 -1376.697509765625 4615.100341796875 -1387.1982421875Q4624.40087890625 -1397.698974609375 4648.502197265625 -1405.899658203125L4768.706298828125 -1447.40185546875Q4798.707763671875 -1457.902587890625 4814.7586669921875 -1461.5528564453125Q4830.8095703125 -1465.203125 4843.910400390625 -1465.203125Q4865.511474609375 -1465.203125 4877.3619384765625 -1451.6524658203125Q4889.21240234375 -1438.101806640625 4889.21240234375 -1415.100830078125Z"/><path d="M5589.297607421875 -108.20361328125V-133.40380859375L5578.7958984375 -141.00341796875V-634.704833984375Q5578.7958984375 -720.501220703125 5534.5479736328125 -765.699462890625Q5490.300048828125 -810.897705078125 5414.703369140625 -810.897705078125Q5343.20703125 -810.897705078125 5305.108642578125 -780.799072265625Q5267.01025390625 -750.700439453125 5267.01025390625 -703.00244140625V-660.2021484375Q5267.01025390625 -615.599609375 5245.308349609375 -592.3482666015625Q5223.6064453125 -569.096923828125 5182.0029296875 -569.096923828125Q5140.7998046875 -569.096923828125 5122.1483154296875 -592.6478271484375Q5103.496826171875 -616.19873046875 5103.496826171875 -653.6005859375Q5103.496826171875 -714.40087890625 5142.497802734375 -766.80126953125Q5181.498779296875 -819.20166015625 5257.40087890625 -851.501953125Q5333.302978515625 -883.80224609375 5443.706298828125 -883.80224609375Q5579.310302734375 -883.80224609375 5654.81103515625 -817.001953125Q5730.311767578125 -750.20166015625 5730.311767578125 -629.00146484375V-141.408203125Q5730.311767578125 -115.80908203125 5741.011474609375 -100.109375Q5751.711181640625 -84.40966796875 5776.710693359375 -84.40966796875Q5791.310302734375 -84.40966796875 5800.610107421875 -89.8594970703125Q5809.909912109375 -95.309326171875 5816.60986328125 -106.308837890625Q5820.909912109375 -112.108642578125 5825.6600341796875 -116.3585205078125Q5830.41015625 -120.6083984375 5837.710205078125 -120.6083984375Q5849.310791015625 -120.6083984375 5855.7611083984375 -111.207763671875Q5862.21142578125 -101.80712890625 5862.21142578125 -86.6064453125Q5862.21142578125 -59.205078125 5846.1605224609375 -34.903564453125Q5830.109619140625 -10.60205078125 5800.0579833984375 4.698974609375Q5770.00634765625 20.0 5728.2041015625 20.0Q5664.20166015625 20.0 5626.7496337890625 -14.5511474609375Q5589.297607421875 -49.102294921875 5589.297607421875 -108.20361328125ZM5064.3974609375 -196.500732421875Q5064.3974609375 -313.2021484375 5159.8485107421875 -381.502685546875Q5255.299560546875 -449.80322265625 5417.101806640625 -449.80322265625Q5466.101318359375 -449.80322265625 5518.5501708984375 -441.303466796875Q5570.9990234375 -432.8037109375 5609.7978515625 -417.904052734375L5596.59619140625 -351.100830078125Q5557.497802734375 -366.300537109375 5515.099853515625 -375.2001953125Q5472.701904296875 -384.099853515625 5423.904052734375 -384.099853515625Q5329.00830078125 -384.099853515625 5273.5107421875 -341.5009765625Q5218.01318359375 -298.902099609375 5218.01318359375 -221.304443359375Q5218.01318359375 -147.906494140625 5263.6614990234375 -111.3572998046875Q5309.309814453125 -74.80810546875 5379.107666015625 -74.80810546875Q5448.304443359375 -74.80810546875 5508.301513671875 -107.9564208984375Q5568.298583984375 -141.104736328125 5610.99609375 -199.4013671875L5632.296142578125 -141.897705078125Q5582.697021484375 -66.19873046875 5499.997314453125 -23.099365234375Q5417.297607421875 20.0 5317.1982421875 20.0Q5200.19775390625 20.0 5132.297607421875 -38.400390625Q5064.3974609375 -96.80078125 5064.3974609375 -196.500732421875Z"/></g></svg>